<?xml version="1.0" standalone="no"?>
<!DOCTYPE svg PUBLIC "-//W3C//DTD SVG 20010904//EN"
 "http://www.w3.org/TR/2001/REC-SVG-20010904/DTD/svg10.dtd">
<svg version="1.0" xmlns="http://www.w3.org/2000/svg"
 width="263.000000pt" height="263.000000pt" viewBox="0 0 263.000000 263.000000"
 preserveAspectRatio="xMidYMid meet">

<g transform="translate(0.000000,263.000000) scale(0.100000,-0.100000)"
fill="#000000" stroke="none">
<path d="M1245 2610 c-11 -4 -42 -16 -69 -25 -143 -51 -223 -228 -165 -365 33
-81 81 -134 147 -167 50 -24 68 -28 147 -28 110 0 163 22 229 96 104 115 102
293 -4 400 -68 68 -221 116 -285 89z"/>
<path d="M773 1894 c-53 -27 -110 -81 -129 -126 -18 -40 -19 -83 -22 -651 -2
-542 -1 -611 13 -641 34 -72 139 -85 190 -24 l25 30 0 448 c0 386 2 449 15
460 12 10 18 10 30 0 13 -11 15 -101 15 -701 l0 -689 165 0 165 0 0 288 c0
211 3 291 12 300 7 7 30 12 53 12 23 0 46 -5 53 -12 9 -9 12 -89 12 -300 l0
-288 165 0 165 0 0 684 c0 376 3 691 6 700 7 18 30 21 39 6 4 -6 6 -210 6
-454 l-1 -443 34 -39 c31 -36 38 -39 85 -39 44 0 55 4 83 33 l33 32 3 597 c3
654 3 658 -57 740 -18 24 -50 51 -82 67 l-53 26 -495 0 c-429 0 -500 -3 -528
-16z"/>
</g>
</svg>
